# xmcd
#
# Track frame offsets:
#  150
#  14814
#  30377
#  41914
#  57659
#  74645
#  89811
#  106400
#  128024
#  154237
#  172145
#  195019
#  207058
#  212082
#
# Disc length: 3044 seconds
#
# Revision: 0
# Processed by: cddbd v1.5.1PL2 Copyright (c) Steve Scherf et al.
# Submitted via: Collectorz.com_Music_Collector 6.11
#
DISCID=d10be20e
DTITLE=Todd Snider - City Stages, Birmingham, Alabama - 20/06/1999
DYEAR=1999
DGENRE=Alt Country
TTITLE0=Can't Complain
TTITLE1=Horseshoe Lake
TTITLE2=Intro To My Generation Part 2
TTITLE3=My Generation Part 2
TTITLE4=Forty Five Miles
TTITLE5=It's Hard Enough
TTITLE6=Sideshow Blues
TTITLE7=Devil's Backbone Tavern Story
TTITLE8=Devil's Backbone Tavern
TTITLE9=Talkin' Seattle Grunge Rock Blues
TTITLE10=Alright Guy
TTITLE11=Better Than Ever Blues Part 2
TTITLE12=What Made Milwaukee Famous
TTITLE13=Once He Finds Us > Goin' Down The Road Feelin' Bad > Will The Ci
EXTD=
EXTT0=
EXTT1=
EXTT2=
EXTT3=
EXTT4=
EXTT5=
EXTT6=
EXTT7=
EXTT8=
EXTT9=
EXTT10=
EXTT11=
EXTT12=
EXTT13=
PLAYORDER=
